# Blender v2.90.1 OBJ File: ''
# www.blender.org
mtllib 2020.mtl
o Plane
v -20.000002 0.000000 20.000002
v 20.000002 0.000000 20.000002
v -20.000002 0.000000 -20.000002
v 20.000002 0.000000 -20.000002
v -20.000000 0.000000 -15.000001
v -20.000000 0.000000 -9.999999
v -20.000000 0.000000 -4.999999
v -20.000002 0.000000 0.000000
v -20.000000 0.000000 4.999999
v -20.000002 0.000000 10.000002
v -20.000000 0.000000 15.000001
v -15.000002 0.000000 20.000002
v -9.999999 0.000000 20.000000
v -5.000000 0.000000 20.000002
v 0.000000 0.000000 20.000002
v 5.000000 0.000000 20.000002
v 9.999999 0.000000 20.000000
v 15.000002 0.000000 20.000002
v 20.000000 0.000000 15.000001
v 20.000002 0.000000 10.000000
v 20.000000 0.000000 4.999999
v 20.000002 0.000000 0.000000
v 20.000002 0.000000 -5.000000
v 20.000002 0.000000 -10.000000
v 20.000000 0.000000 -15.000001
v 15.000001 0.000000 -20.000000
v 10.000000 0.000000 -20.000002
v 4.999999 0.000000 -20.000000
v 0.000000 0.000000 -20.000002
v -5.000000 0.000000 -20.000002
v -10.000000 0.000000 -20.000002
v -15.000001 0.000000 -20.000000
v -15.000002 0.000000 15.000002
v -10.000000 0.000000 15.000000
v -5.000000 0.000000 15.000002
v 0.000000 0.000000 15.000002
v 5.000000 0.000000 15.000002
v 10.000001 0.000000 15.000001
v 15.000001 0.000000 15.000001
v -15.000000 0.000000 10.000000
v -10.000000 0.000000 10.000000
v -5.000001 0.000000 10.000000
v 0.000001 0.000000 10.000000
v 5.000000 0.000000 10.000000
v 9.999999 0.000000 10.000000
v 15.000000 0.000000 10.000000
v -15.000000 0.000000 5.000000
v -10.000000 0.000000 5.000000
v -5.000001 0.000000 5.000000
v 0.000000 0.000000 4.999999
v 5.000000 0.000000 5.000000
v 10.000000 0.000000 5.000000
v 15.000002 0.000000 5.000000
v -15.000002 0.000000 0.000000
v -10.000000 0.000000 0.000000
v -5.000000 0.000000 0.000000
v 0.000001 0.000000 0.000001
v 5.000000 0.000000 0.000001
v 10.000000 0.000000 0.000001
v 15.000002 0.000000 0.000001
v -15.000001 0.000000 -5.000000
v -9.999999 0.000000 -5.000001
v -5.000001 0.000000 -5.000000
v 0.000001 0.000000 -5.000000
v 5.000000 0.000000 -5.000000
v 10.000000 0.000000 -5.000001
v 15.000002 0.000000 -5.000000
v -15.000000 0.000000 -10.000000
v -9.999999 0.000000 -10.000000
v -5.000001 0.000000 -10.000000
v 0.000000 0.000000 -10.000000
v 5.000000 0.000000 -10.000000
v 9.999999 0.000000 -10.000000
v 15.000000 0.000000 -9.999999
v -15.000002 0.000000 -15.000002
v -10.000000 0.000000 -15.000000
v -5.000000 0.000000 -15.000002
v 0.000000 0.000000 -15.000000
v 5.000000 0.000000 -15.000001
v 10.000001 0.000000 -15.000001
v 15.000000 0.000000 -15.000000
vt 0.250000 0.125000
vt 0.125000 0.250000
vt 0.125000 0.125000
vt 0.375000 0.250000
vt 0.250000 0.250000
vt 0.500000 0.125000
vt 0.375000 0.125000
vt 0.625000 0.125000
vt 0.500000 0.250000
vt 0.750000 0.250000
vt 0.625000 0.250000
vt 0.750000 0.125000
vt 0.875000 0.250000
vt 0.250000 0.375000
vt 0.125000 0.375000
vt 0.375000 0.375000
vt 0.625000 0.375000
vt 0.500000 0.375000
vt 0.750000 0.375000
vt 0.250000 0.500000
vt 0.125000 0.500000
vt 0.375000 0.500000
vt 0.625000 0.500000
vt 0.500000 0.500000
vt 0.750000 0.500000
vt 0.875000 0.375000
vt 0.125000 0.625000
vt 0.375000 0.625000
vt 0.250000 0.625000
vt 0.500000 0.625000
vt 0.625000 0.625000
vt 0.875000 0.625000
vt 0.750000 0.625000
vt 0.125000 0.750000
vt 0.375000 0.750000
vt 0.250000 0.750000
vt 0.500000 0.750000
vt 0.625000 0.750000
vt 0.875000 0.750000
vt 0.750000 0.750000
vt 0.250000 0.875000
vt 0.125000 0.875000
vt 0.500000 0.875000
vt 0.375000 0.875000
vt 0.625000 0.875000
vt 0.875000 0.875000
vt 0.750000 0.875000
vt 0.125000 0.000000
vt 0.000000 0.125000
vt 0.000000 0.000000
vt 0.250000 0.000000
vt 0.500000 0.000000
vt 0.375000 0.000000
vt 0.625000 0.000000
vt 0.750000 0.000000
vt 0.875000 0.125000
vt 0.875000 0.000000
vt 1.000000 0.125000
vt 1.000000 0.250000
vt 1.000000 0.375000
vt 0.875000 0.500000
vt 1.000000 0.500000
vt 1.000000 0.750000
vt 1.000000 0.875000
vt 0.875000 1.000000
vt 0.750000 1.000000
vt 0.625000 1.000000
vt 0.500000 1.000000
vt 0.375000 1.000000
vt 0.250000 1.000000
vt 0.125000 1.000000
vt 0.000000 0.875000
vt 0.000000 1.000000
vt 0.000000 0.750000
vt 0.000000 0.625000
vt 0.000000 0.500000
vt 0.000000 0.375000
vt 0.000000 0.250000
vt 1.000000 0.000000
vt 1.000000 0.625000
vt 1.000000 1.000000
vn 0.0000 1.0000 0.0000
usemtl None
s off
f 34/1/1 40/2/1 33/3/1
f 34/1/1 42/4/1 41/5/1
f 36/6/1 42/4/1 35/7/1
f 37/8/1 43/9/1 36/6/1
f 37/8/1 45/10/1 44/11/1
f 38/12/1 46/13/1 45/10/1
f 40/2/1 48/14/1 47/15/1
f 42/4/1 48/14/1 41/5/1
f 43/9/1 49/16/1 42/4/1
f 43/9/1 51/17/1 50/18/1
f 45/10/1 51/17/1 44/11/1
f 46/13/1 52/19/1 45/10/1
f 47/15/1 55/20/1 54/21/1
f 49/16/1 55/20/1 48/14/1
f 50/18/1 56/22/1 49/16/1
f 50/18/1 58/23/1 57/24/1
f 51/17/1 59/25/1 58/23/1
f 53/26/1 59/25/1 52/19/1
f 55/20/1 61/27/1 54/21/1
f 55/20/1 63/28/1 62/29/1
f 56/22/1 64/30/1 63/28/1
f 58/23/1 64/30/1 57/24/1
f 59/25/1 65/31/1 58/23/1
f 59/25/1 67/32/1 66/33/1
f 62/29/1 68/34/1 61/27/1
f 62/29/1 70/35/1 69/36/1
f 63/28/1 71/37/1 70/35/1
f 65/31/1 71/37/1 64/30/1
f 66/33/1 72/38/1 65/31/1
f 66/33/1 74/39/1 73/40/1
f 68/34/1 76/41/1 75/42/1
f 70/35/1 76/41/1 69/36/1
f 70/35/1 78/43/1 77/44/1
f 72/38/1 78/43/1 71/37/1
f 73/40/1 79/45/1 72/38/1
f 73/40/1 81/46/1 80/47/1
f 12/48/1 11/49/1 1/50/1
f 13/51/1 33/3/1 12/48/1
f 13/51/1 35/7/1 34/1/1
f 15/52/1 35/7/1 14/53/1
f 16/54/1 36/6/1 15/52/1
f 17/55/1 37/8/1 16/54/1
f 17/55/1 39/56/1 38/12/1
f 18/57/1 19/58/1 39/56/1
f 19/58/1 46/13/1 39/56/1
f 20/59/1 53/26/1 46/13/1
f 21/60/1 60/61/1 53/26/1
f 22/62/1 67/32/1 60/61/1
f 67/32/1 24/63/1 74/39/1
f 24/63/1 81/46/1 74/39/1
f 25/64/1 26/65/1 81/46/1
f 80/47/1 26/65/1 27/66/1
f 79/45/1 27/66/1 28/67/1
f 78/43/1 28/67/1 29/68/1
f 77/44/1 29/68/1 30/69/1
f 77/44/1 31/70/1 76/41/1
f 76/41/1 32/71/1 75/42/1
f 5/72/1 32/71/1 3/73/1
f 6/74/1 75/42/1 5/72/1
f 61/27/1 6/74/1 7/75/1
f 54/21/1 7/75/1 8/76/1
f 9/77/1 54/21/1 8/76/1
f 40/2/1 9/77/1 10/78/1
f 33/3/1 10/78/1 11/49/1
f 34/1/1 41/5/1 40/2/1
f 34/1/1 35/7/1 42/4/1
f 36/6/1 43/9/1 42/4/1
f 37/8/1 44/11/1 43/9/1
f 37/8/1 38/12/1 45/10/1
f 38/12/1 39/56/1 46/13/1
f 40/2/1 41/5/1 48/14/1
f 42/4/1 49/16/1 48/14/1
f 43/9/1 50/18/1 49/16/1
f 43/9/1 44/11/1 51/17/1
f 45/10/1 52/19/1 51/17/1
f 46/13/1 53/26/1 52/19/1
f 47/15/1 48/14/1 55/20/1
f 49/16/1 56/22/1 55/20/1
f 50/18/1 57/24/1 56/22/1
f 50/18/1 51/17/1 58/23/1
f 51/17/1 52/19/1 59/25/1
f 53/26/1 60/61/1 59/25/1
f 55/20/1 62/29/1 61/27/1
f 55/20/1 56/22/1 63/28/1
f 56/22/1 57/24/1 64/30/1
f 58/23/1 65/31/1 64/30/1
f 59/25/1 66/33/1 65/31/1
f 59/25/1 60/61/1 67/32/1
f 62/29/1 69/36/1 68/34/1
f 62/29/1 63/28/1 70/35/1
f 63/28/1 64/30/1 71/37/1
f 65/31/1 72/38/1 71/37/1
f 66/33/1 73/40/1 72/38/1
f 66/33/1 67/32/1 74/39/1
f 68/34/1 69/36/1 76/41/1
f 70/35/1 77/44/1 76/41/1
f 70/35/1 71/37/1 78/43/1
f 72/38/1 79/45/1 78/43/1
f 73/40/1 80/47/1 79/45/1
f 73/40/1 74/39/1 81/46/1
f 12/48/1 33/3/1 11/49/1
f 13/51/1 34/1/1 33/3/1
f 13/51/1 14/53/1 35/7/1
f 15/52/1 36/6/1 35/7/1
f 16/54/1 37/8/1 36/6/1
f 17/55/1 38/12/1 37/8/1
f 17/55/1 18/57/1 39/56/1
f 18/57/1 2/79/1 19/58/1
f 19/58/1 20/59/1 46/13/1
f 20/59/1 21/60/1 53/26/1
f 21/60/1 22/62/1 60/61/1
f 22/62/1 23/80/1 67/32/1
f 67/32/1 23/80/1 24/63/1
f 24/63/1 25/64/1 81/46/1
f 25/64/1 4/81/1 26/65/1
f 80/47/1 81/46/1 26/65/1
f 79/45/1 80/47/1 27/66/1
f 78/43/1 79/45/1 28/67/1
f 77/44/1 78/43/1 29/68/1
f 77/44/1 30/69/1 31/70/1
f 76/41/1 31/70/1 32/71/1
f 5/72/1 75/42/1 32/71/1
f 6/74/1 68/34/1 75/42/1
f 61/27/1 68/34/1 6/74/1
f 54/21/1 61/27/1 7/75/1
f 9/77/1 47/15/1 54/21/1
f 40/2/1 47/15/1 9/77/1
f 33/3/1 40/2/1 10/78/1
