# Blender v2.90.1 OBJ File: ''
# www.blender.org
mtllib nurmikko.mtl
o Plane.001
v 0.500000 0.000000 0.866025
v -0.500000 0.000000 -0.866025
v 0.500000 2.000000 0.866025
v -0.500000 2.000000 -0.866025
v -1.000000 0.000000 -0.000000
v 1.000000 0.000000 -0.000000
v -1.000000 2.000000 0.000000
v 1.000000 2.000000 0.000000
v -0.500000 0.000000 0.866025
v 0.500000 0.000000 -0.866026
v -0.500000 2.000000 0.866026
v 0.500000 2.000000 -0.866025
vt 1.000000 0.000000
vt 0.000000 1.000000
vt 0.000000 0.000000
vt 1.000000 0.000000
vt 0.000000 1.000000
vt 0.000000 0.000000
vt 1.000000 0.000000
vt 0.000000 1.000000
vt 0.000000 0.000000
vt 1.000000 1.000000
vt 1.000000 1.000000
vt 1.000000 1.000000
vn 0.8660 -0.0000 -0.5000
vn 0.0000 -0.0000 1.0000
vn 0.8660 -0.0000 0.5000
usemtl Material.001
s off
f 2/1/1 3/2/1 1/3/1
f 6/4/2 7/5/2 5/6/2
f 10/7/3 11/8/3 9/9/3
f 2/1/1 4/10/1 3/2/1
f 6/4/2 8/11/2 7/5/2
f 10/7/3 12/12/3 11/8/3
